<svg xmlns:xlink="http://www.w3.org/1999/xlink" xmlns="http://www.w3.org/2000/svg" width="36" height="36" viewBox="0 0 36 36" fill="none"><g opacity="0.65" fill="none"><path d="M23.6963 16.2144L29.2451 15.7236C30.4904 15.7236 31.5 16.7431 31.5 18.0005C31.5 19.2579 30.4904 20.2773 29.2451 20.2773L23.6963 19.7866C22.7194 19.7866 21.9274 18.9869 21.9274 18.0005C21.9274 17.0124 22.7194 16.2144 23.6963 16.2144" fill="#3A81F6"></path><path d="M5.06301 16.3048C5.14974 16.2172 5.47373 15.8471 5.77809 15.5397C7.55352 13.6148 12.1893 10.4672 14.6143 9.50395C14.9825 9.35028 15.9136 9.02313 16.4127 9C16.8889 9 17.3438 9.1107 17.7774 9.3288C18.319 9.63448 18.751 10.1169 18.9899 10.6853C19.1421 11.0786 19.381 12.26 19.381 12.2814C19.6183 13.5719 19.7476 15.6703 19.7476 17.9901C19.7476 20.1975 19.6183 22.21 19.4236 23.5219C19.4023 23.5451 19.1634 25.0106 18.9032 25.5129C18.427 26.4316 17.4959 27 16.4994 27L16.4127 27C15.7631 26.9785 14.3984 26.4085 14.3984 26.3887C12.1026 25.4254 7.57643 22.4298 5.75682 20.4388C5.75682 20.4388 5.24301 19.9266 5.02046 19.6077C4.67356 19.1483 4.50011 18.58 4.50011 18.0116C4.50011 17.3771 4.69483 16.7872 5.06301 16.3048" fill="#3A81F6"></path></g></svg>