<svg xmlns:xlink="http://www.w3.org/1999/xlink" xmlns="http://www.w3.org/2000/svg" width="25" height="25" viewBox="0 0 25 25" fill="none"><path fill-rule="evenodd" clip-rule="evenodd" d="M20.325 6.37845H16.184C16.143 5.72445 15.962 4.80245 15.311 4.05445C14.623 3.26345 13.593 2.86145 12.249 2.86145C10.906 2.86145 9.87605 3.26345 9.18805 4.05445C8.53705 4.80245 8.35505 5.72445 8.31405 6.37845H4.17505C3.76105 6.37845 3.42505 6.71445 3.42505 7.12845C3.42505 7.54245 3.76105 7.87845 4.17505 7.87845H20.325C20.739 7.87845 21.075 7.54245 21.075 7.12845C21.075 6.71445 20.739 6.37845 20.325 6.37845Z" fill="#FF0000"/><path opacity="0.4" fill-rule="evenodd" clip-rule="evenodd" d="M19.3487 10.2018C19.3487 9.92578 19.1247 9.70178 18.8487 9.70178H5.65272C5.37572 9.70178 5.15272 9.92578 5.15272 10.2018C5.15272 11.1988 5.13472 12.1278 5.11772 12.9888C5.04372 16.7378 4.99472 19.2148 6.50972 20.7598C7.58572 21.8568 9.35272 22.3468 12.2397 22.3468C15.1297 22.3468 16.8997 21.8558 17.9787 20.7568C19.5007 19.2048 19.4527 16.7158 19.3817 12.9458C19.3657 12.0968 19.3487 11.1818 19.3487 10.2018Z" fill="#FF0000"/></svg>