<svg width="27" height="30" viewBox="0 0 27 30" fill="none" xmlns="http://www.w3.org/2000/svg">
<path fill-rule="evenodd" clip-rule="evenodd" d="M5.75 18.0001C5.75 24.9371 8.063 27.2501 15 27.2501C21.937 27.2501 24.25 24.9371 24.25 18.0001C24.25 11.0631 21.937 8.75012 15 8.75012C8.063 8.75012 5.75 11.0631 5.75 18.0001Z" stroke="white" stroke-width="1.5" stroke-linecap="round" stroke-linejoin="round"/>
<path fill-rule="evenodd" clip-rule="evenodd" d="M18.416 17.8555C18.416 16.9515 13.832 14.0595 13.312 14.5795C12.793 15.0995 12.742 20.5625 13.312 21.1315C13.883 21.7025 18.416 18.7595 18.416 17.8555Z" stroke="white" stroke-width="1.5" stroke-linecap="round" stroke-linejoin="round"/>
<path fill-rule="evenodd" clip-rule="evenodd" d="M18.1358 0H1.8562C0.825952 0 -0.00805821 0.8489 5.87499e-05 1.87912V8.14287C5.87499e-05 9.18131 0.834129 10.022 1.86438 10.022H9.57487L13.099 12L12.2977 10.022H18.1358C19.166 10.022 20 9.18131 20 8.14287V1.87912C20 0.840657 19.166 0 18.1358 0ZM1.51282 1.45055C1.28388 1.46703 1.11216 1.54945 0.997694 1.70604C0.883224 1.85439 0.842343 2.04395 0.866869 2.25824C1.34929 5.34893 1.799 7.43407 2.216 8.51375C2.37954 8.90933 2.5676 9.09893 2.78837 9.08245C3.13178 9.0577 3.54061 8.57969 4.02303 7.64838C4.2765 7.12086 4.66898 6.3297 5.20046 5.27472C5.64197 6.8324 6.24703 8.00277 7.00748 8.78572C7.22009 9.00824 7.44085 9.10715 7.65341 9.09067C7.84151 9.07418 7.98864 8.97527 8.08677 8.79394C8.16854 8.63736 8.20125 8.45603 8.1849 8.24999C8.13583 7.50001 8.20946 6.45331 8.41386 5.10989C8.62641 3.72528 8.88808 2.72802 9.20697 2.13462C9.27239 2.01099 9.29689 1.88736 9.28874 1.73901C9.27239 1.54945 9.19062 1.39286 9.03527 1.26923C8.87993 1.14561 8.70819 1.08791 8.52014 1.10439C8.28302 1.12088 8.10313 1.23626 7.98049 1.46703C7.47356 2.39835 7.11376 3.9066 6.90121 6C6.59047 5.2088 6.3288 4.27747 6.1244 3.18132C6.03447 2.69506 5.81372 2.46429 5.45392 2.48901C5.20863 2.50549 5.00422 2.67033 4.84069 2.98352L3.05002 6.42034C2.75566 5.22528 2.47765 3.76649 2.22418 2.04395C2.16695 1.61539 1.92982 1.41758 1.51282 1.45055ZM17.2691 2.04398C17.8496 2.16761 18.283 2.4808 18.5773 3.00003C18.839 3.44508 18.9698 3.9808 18.9698 4.62365C18.9698 5.47254 18.7572 6.24727 18.332 6.95607C17.8414 7.78025 17.2037 8.19232 16.4105 8.19232C16.2716 8.19232 16.1244 8.17584 15.969 8.14287C15.3885 8.01926 14.9551 7.7061 14.6607 7.18685C14.3991 6.73355 14.2683 6.1896 14.2683 5.55496C14.2683 4.70607 14.4809 3.93134 14.906 3.2308C15.4048 2.40662 16.0426 1.99453 16.8276 1.99453C16.9665 1.99453 17.1137 2.01102 17.2691 2.04398ZM16.9257 6.50276C17.2282 6.23079 17.4326 5.82694 17.5471 5.28299C17.5798 5.09343 17.6043 4.88739 17.6043 4.6731C17.6043 4.43409 17.5552 4.1786 17.4571 3.9231C17.3345 3.60167 17.1709 3.4286 16.9747 3.38739C16.6804 3.3297 16.3942 3.49453 16.1244 3.89838C15.9036 4.21157 15.7646 4.54124 15.691 4.87915C15.6501 5.06871 15.6337 5.27477 15.6337 5.48081C15.6337 5.71981 15.6828 5.9753 15.7809 6.23079C15.9036 6.55221 16.0671 6.72528 16.2634 6.76652C16.4678 6.8077 16.6885 6.71706 16.9257 6.50276ZM13.4506 3.00003C13.1562 2.4808 12.7147 2.16761 12.1424 2.04398C11.987 2.01102 11.8398 1.99453 11.7008 1.99453C10.9159 1.99453 10.2781 2.40662 9.77932 3.2308C9.35411 3.93134 9.14155 4.70607 9.14155 5.55496C9.14155 6.1896 9.27239 6.73355 9.53401 7.18685C9.82839 7.7061 10.2618 8.01926 10.8423 8.14287C10.9976 8.17584 11.1448 8.19232 11.2838 8.19232C12.0769 8.19232 12.7147 7.78025 13.2053 6.95607C13.6305 6.24727 13.8431 5.47254 13.8431 4.62365C13.8431 3.9808 13.7122 3.44508 13.4506 3.00003ZM12.4203 5.28299C12.3059 5.82694 12.1014 6.23079 11.7989 6.50276C11.5618 6.71706 11.341 6.8077 11.1366 6.76652C10.9404 6.72528 10.7768 6.55221 10.6542 6.23079C10.5561 5.9753 10.507 5.71981 10.507 5.48081C10.507 5.27477 10.5234 5.06871 10.5643 4.87915C10.6379 4.54124 10.7768 4.21157 10.9976 3.89838C11.2675 3.49453 11.5536 3.3297 11.848 3.38739C12.0442 3.4286 12.2078 3.60167 12.3304 3.9231C12.4285 4.1786 12.4776 4.43409 12.4776 4.6731C12.4776 4.88739 12.4612 5.09343 12.4203 5.28299Z" fill="#7F54B3"/>
</svg>
